<?xml version="1.0" standalone="no"?>
<!DOCTYPE svg PUBLIC "-//W3C//DTD SVG 20010904//EN"
 "http://www.w3.org/TR/2001/REC-SVG-20010904/DTD/svg10.dtd">
<svg version="1.0" xmlns="http://www.w3.org/2000/svg"
 width="300.000000pt" height="300.000000pt" viewBox="0 0 300.000000 300.000000"
 preserveAspectRatio="xMidYMid meet">
<metadata>
Created by potrace 1.14, written by Peter Selinger 2001-2017
</metadata>
<g transform="translate(0.000000,300.000000) scale(0.100000,-0.100000)"
fill="#000000" stroke="none">
<path d="M203 2986 c-87 -28 -169 -113 -192 -201 -8 -27 -11 -435 -11 -1286 0
-1045 2 -1253 14 -1293 20 -65 71 -128 136 -168 l54 -33 1270 -3 c1456 -3
1340 -10 1436 87 98 97 91 -19 88 1433 l-3 1263 -22 45 c-29 59 -83 113 -141
142 l-47 23 -1270 2 c-1022 1 -1278 -1 -1312 -11z"/>
</g>
</svg>
